<svg id="Capa_1" data-name="Capa 1" xmlns="http://www.w3.org/2000/svg" xmlns:xlink="http://www.w3.org/1999/xlink" viewBox="0 0 348.97 107.11"><defs><linearGradient id="Degradado_sin_nombre_47" x1="29.1" y1="52.84" x2="118.34" y2="52.84" gradientTransform="translate(1.38 0.83)" gradientUnits="userSpaceOnUse"><stop offset="0" stop-color="#36a9e1"/><stop offset="0.1" stop-color="#329dd4"/><stop offset="0.72" stop-color="#185a88"/><stop offset="1" stop-color="#0e3f6a"/></linearGradient><linearGradient id="Nueva_muestra_de_degradado_1" x1="39.75" y1="53.27" x2="110.12" y2="53.27" gradientUnits="userSpaceOnUse"><stop offset="0" stop-color="#3cbff0"/><stop offset="0.96" stop-color="#0b4772"/><stop offset="1" stop-color="#0e3f6a"/></linearGradient><linearGradient id="Degradado_sin_nombre_4" x1="21.55" y1="53.47" x2="128.66" y2="53.47" gradientTransform="translate(0.07 -0.09) rotate(0.07)" gradientUnits="userSpaceOnUse"><stop offset="0" stop-color="#36a9e1"/><stop offset="0.96" stop-color="#0b4772"/><stop offset="1" stop-color="#0e3f6a"/></linearGradient></defs><path d="M21.68,67.65,9.53,67.58a4.8,4.8,0,1,0-.34,2.93l12.47.07Z" transform="translate(0 0.08)" fill="#36a9e1"/><path d="M13.78,84.21A4.26,4.26,0,0,0,9.64,81a4.38,4.38,0,0,0-4.39,4.3A4.27,4.27,0,0,0,9.54,89.6a4.37,4.37,0,0,0,4.24-3.29l7.92,0V84.25Z" transform="translate(0 0.08)" fill="#36a9e1"/><path d="M59.07,21.47V18.69h0V18.6L45.49,13.67V10.58l-2.61,0v4.1l-.05.52,13.79,5v1.22a2.94,2.94,0,0,0-1.76,2.75,3,3,0,0,0,3.05,2.93,2.93,2.93,0,0,0,2.92-3A3,3,0,0,0,59.07,21.47Z" transform="translate(0 0.08)" fill="#2497cf"/><polygon points="74.51 22.48 74.65 9.68 77.11 9.67 76.97 22.46 74.51 22.48" fill="#00689a"/><path id="circle1639" d="M72.72,24.18a3,3,0,0,0,3,2.94,3,3,0,0,0,3-3,2.93,2.93,0,0,0-3-2.95A3,3,0,0,0,72.72,24.18Z" transform="translate(0 0.08)" fill="#00689a"/><path d="M60.69,82.32a2.94,2.94,0,0,0-3-2.95,3,3,0,0,0-3,3A2.92,2.92,0,0,0,56.42,85l0,1.09-13.6,5.26v0h0l.08,5,2.37,0-.06-3.24L59,87.78h0L59,85A3,3,0,0,0,60.69,82.32Z" transform="translate(0 0.08)" fill="#2497cf"/><path d="M78.64,82.32a2.94,2.94,0,0,0-3-2.95,3,3,0,0,0-3,3A2.88,2.88,0,0,0,74.33,85l-.14,11.7h2.46l.13-11.61A3,3,0,0,0,78.64,82.32Z" transform="translate(0 0.08)" fill="#00689a"/><polygon points="107.37 15.31 107.38 15.31 107.3 10.34 104.99 10.36 105.04 13.57 91.21 18.92 91.18 18.92 91.18 18.93 91.18 18.93 91.19 18.93 91.27 24.36 93.84 24.34 93.78 20.59 107.38 15.33 107.37 15.31" fill="#084d72"/><path id="circle1639-2" data-name="circle1639" d="M89.53,24.18a2.93,2.93,0,0,0,3,2.94,3,3,0,0,0,3-3,3,3,0,0,0-3-2.95A3,3,0,0,0,89.53,24.18Z" transform="translate(0 0.08)" fill="#084d72"/><path d="M286,103.06a5.45,5.45,0,0,1-3.42-.88,3.22,3.22,0,0,1-1.11-2.7V92.89a.61.61,0,0,1,.21-.51,1.29,1.29,0,0,1,1.28,0,.61.61,0,0,1,.21.51v6.59a2.9,2.9,0,0,0,.26,1.34,1.4,1.4,0,0,0,.87.69,5.47,5.47,0,0,0,1.7.21h2.43a5.47,5.47,0,0,0,1.7-.21,1.4,1.4,0,0,0,.87-.69,2.9,2.9,0,0,0,.26-1.34V92.89a.61.61,0,0,1,.21-.51,1.06,1.06,0,0,1,.64-.17,1,1,0,0,1,.64.17.61.61,0,0,1,.21.51v6.59a3.24,3.24,0,0,1-1.1,2.7,5.46,5.46,0,0,1-3.43.88Z" transform="translate(0 0.08)" fill="#3c3c3b"/><path d="M297.63,103.06c-.56,0-.85-.22-.85-.67v-9.5c0-.45.29-.68.85-.68a1.25,1.25,0,0,1,.85.4l8.13,8.29h-.42v-8c0-.45.28-.68.85-.68s.85.23.85.68v9.5c0,.45-.28.67-.85.67a1.17,1.17,0,0,1-.85-.4l-8.13-8.29h.42v8C298.48,102.84,298.2,103.06,297.63,103.06Z" transform="translate(0 0.08)" fill="#3c3c3b"/><path d="M314.46,103.06a5.63,5.63,0,0,1-2.9-.62,2.54,2.54,0,0,1-1.18-1.94.53.53,0,0,1,.18-.52,1,1,0,0,1,.65-.18c.52,0,.81.22.87.67a1.27,1.27,0,0,0,.65,1,4.31,4.31,0,0,0,1.73.26h1.68a5.09,5.09,0,0,0,1.47-.17,1.17,1.17,0,0,0,.75-.59,2.58,2.58,0,0,0,.21-1.16V92.89c0-.45.28-.68.85-.68s.85.23.85.68V99.8a2.94,2.94,0,0,1-1,2.47,5,5,0,0,1-3.13.79Z" transform="translate(0 0.08)" fill="#3c3c3b"/><path d="M324.92,103.06c-.56,0-.85-.22-.85-.67v-9.5c0-.45.29-.68.85-.68h5.28a3.93,3.93,0,0,1,2.47.68,2.26,2.26,0,0,1,.87,1.91v.44a1.92,1.92,0,0,1-.86,1.67,2.6,2.6,0,0,1,1.61,2.6v.54a2.66,2.66,0,0,1-1,2.24,4.55,4.55,0,0,1-2.84.77Zm.85-6.54h4.8a1.18,1.18,0,0,0,1-.36,1.5,1.5,0,0,0,.27-.92V94.8a1.16,1.16,0,0,0-.36-1,2.25,2.25,0,0,0-1.28-.27h-4.43Zm0,5.2h4.69a2.67,2.67,0,0,0,1.64-.39,1.53,1.53,0,0,0,.49-1.28v-.54a1.53,1.53,0,0,0-.48-1.27,2.7,2.7,0,0,0-1.65-.38h-4.69Z" transform="translate(0 0.08)" fill="#3c3c3b"/><path d="M341.43,103.06a5.46,5.46,0,0,1-3.43-.88,3.24,3.24,0,0,1-1.1-2.7V95.8a3.26,3.26,0,0,1,1.1-2.73,5.4,5.4,0,0,1,3.41-.86h2.45a5.61,5.61,0,0,1,2.9.62,2.53,2.53,0,0,1,1.16,2,.49.49,0,0,1-.16.51,1,1,0,0,1-.65.18.79.79,0,0,1-.89-.68,1.18,1.18,0,0,0-.64-1,4.29,4.29,0,0,0-1.72-.25h-2.45a5.49,5.49,0,0,0-1.69.19,1.45,1.45,0,0,0-.87.69,3,3,0,0,0-.25,1.36v3.68a2.91,2.91,0,0,0,.25,1.34,1.45,1.45,0,0,0,.88.69,5.47,5.47,0,0,0,1.7.21h2.43a5.19,5.19,0,0,0,1.47-.17,1.17,1.17,0,0,0,.74-.58,2.63,2.63,0,0,0,.21-1.17V99h-1.57c-.57,0-.85-.23-.85-.67s.28-.68.85-.68l2.42,0c.57,0,.85.22.85.67V99.8a3,3,0,0,1-1,2.48,5.08,5.08,0,0,1-3.12.78Z" transform="translate(0 0.08)" fill="#3c3c3b"/><path d="M200.93,83.88q-11.91,0-17.61-5.27t-5.69-16.27V40.23q0-11.11,5.67-16.37t17.52-5.17h12.59q9.76,0,14.92,3.73t6,11.75a3.26,3.26,0,0,1-.83,3.08,4.77,4.77,0,0,1-3.33,1q-3.94,0-4.58-4c-.34-3-1.45-4.94-3.3-6s-4.81-1.53-8.86-1.53H200.82a24.3,24.3,0,0,0-8.66,1.15,7.74,7.74,0,0,0-4.47,4.16,20.44,20.44,0,0,0-1.32,8.15V62.34a20.13,20.13,0,0,0,1.32,8.08,7.83,7.83,0,0,0,4.5,4.16,25.17,25.17,0,0,0,8.74,1.22h12.48c4.05,0,7-.52,8.86-1.56s3-3,3.3-5.94q.63-4,4.58-4a4.77,4.77,0,0,1,3.33,1.06,3.26,3.26,0,0,1,.83,3.08q-.84,8.07-6,11.78t-14.92,3.7Z" transform="translate(0 0.08)" fill="#383c43"/><path d="M251.16,83.88a4.7,4.7,0,0,1-3.3-1,3.92,3.92,0,0,1-1.07-3v-57a3.91,3.91,0,0,1,1.07-3.07,6.19,6.19,0,0,1,6.62,0,4,4,0,0,1,1,3.07v57a4,4,0,0,1-1,3A4.69,4.69,0,0,1,251.16,83.88Z" transform="translate(0 0.08)" fill="#383c43"/><path d="M275.8,83.88a4.72,4.72,0,0,1-3.3-1,4,4,0,0,1-1.06-3v-57a3.94,3.94,0,0,1,1.06-3.07,6.2,6.2,0,0,1,6.63,0,4,4,0,0,1,1,3.07v57a4,4,0,0,1-1,3A4.7,4.7,0,0,1,275.8,83.88Z" transform="translate(0 0.08)" fill="#383c43"/><path d="M313.71,83.88q-8.9,0-13.86-3.32t-6.21-10.24a3.59,3.59,0,0,1,.93-3.17,4.74,4.74,0,0,1,3.33-1.06,4.52,4.52,0,0,1,3.2,1,5.26,5.26,0,0,1,1.38,3,6.29,6.29,0,0,0,3.35,4.55q2.58,1.22,7.88,1.22h15q6.71,0,9.12-2.23c1.62-1.49,2.42-4.27,2.42-8.34s-.83-7-2.5-8.49-4.67-2.28-9-2.28h-12.9Q306,54.46,301.2,50t-4.75-13.53q0-9,4.7-13.42t14.54-4.37h12.37q8.26,0,13,3.12A14.15,14.15,0,0,1,347,31.38a3.38,3.38,0,0,1-.83,3.15,4.83,4.83,0,0,1-3.43,1.08,4.28,4.28,0,0,1-3.12-1,5.06,5.06,0,0,1-1.36-2.93,5.69,5.69,0,0,0-3.17-3.87,18.21,18.21,0,0,0-7-1H315.69q-6.24,0-8.38,2t-2.13,7.67q0,5.67,2.19,7.79t8.42,2.11h12.9q10.24,0,15.26,4.62t5,14.23q0,9.55-5,14.11t-15.29,4.54Z" transform="translate(0 0.08)" fill="#383c43"/><path d="M21.82,35.76,9.34,35.67a4.8,4.8,0,1,0,0,2.93l12.49.09Z" transform="translate(0 0.08)" fill="#36a9e1"/><path d="M21.7,52.45l-7.14-.05a4.26,4.26,0,0,0-4.15-3.24A4.37,4.37,0,0,0,6,53.47a4.27,4.27,0,0,0,4.29,4.31,4.38,4.38,0,0,0,4.22-3.26l7.15,0Z" transform="translate(0 0.08)" fill="#36a9e1"/><path d="M21.88,20.59l-7.33,0a4.28,4.28,0,0,0-4.14-3.22A4.37,4.37,0,0,0,6,21.65,4.26,4.26,0,0,0,10.32,26a4.38,4.38,0,0,0,4.21-3.23l7.33,0Z" transform="translate(0 0.08)" fill="#36a9e1"/><path d="M145,64.6a4.79,4.79,0,0,0-4.56,3.3l-12.13-.08v2.93l12.12.08A4.78,4.78,0,1,0,145,64.6Z" transform="translate(0 0.08)" fill="#004165"/><path d="M145,32.65A4.77,4.77,0,0,0,140.43,36l-11.93-.07v2.93l11.94.06A4.78,4.78,0,1,0,145,32.65Z" transform="translate(0 0.08)" fill="#004165"/><path d="M140.68,48.86A4.39,4.39,0,0,0,136.49,52l-8.07-.06v2.13l8,0a4.27,4.27,0,0,0,4.18,3.37A4.39,4.39,0,0,0,145,53.17,4.28,4.28,0,0,0,140.68,48.86Z" transform="translate(0 0.08)" fill="#004165"/><path d="M140.68,80.55a4.37,4.37,0,0,0-4.22,3.23l-8.2,0,0,2.17,8.2,0a4.26,4.26,0,0,0,4.14,3.22,4.38,4.38,0,0,0,4.39-4.3A4.27,4.27,0,0,0,140.68,80.55Z" transform="translate(0 0.08)" fill="#004165"/><rect x="31.73" y="10.3" width="86.75" height="86.75" rx="8.14" transform="translate(0.32 -0.37) rotate(0.35)" fill="none" stroke-miterlimit="10" stroke-width="2.5" stroke="url(#Degradado_sin_nombre_47)"/><path d="M64,67.17a2.93,2.93,0,0,1-.72,2,2.18,2.18,0,0,1-1.67.84,2.15,2.15,0,0,1-1.74-1l-8-11.73L43.84,69a2,2,0,0,1-1.69,1,2.15,2.15,0,0,1-1.67-.81,2.81,2.81,0,0,1-.73-1.93,3.05,3.05,0,0,1,.59-1.77L48.9,53,40.66,41.17a2.8,2.8,0,0,1-.59-1.77,2.84,2.84,0,0,1,.71-1.93,2.11,2.11,0,0,1,1.65-.82,2.14,2.14,0,0,1,1.73,1l7.68,11.21,7.65-11.23a2,2,0,0,1,1.69-1,2.15,2.15,0,0,1,1.67.81,2.93,2.93,0,0,1,.14,3.7L54.79,53,63.34,65.4A3,3,0,0,1,64,67.17Z" transform="translate(0 0.08)" fill="url(#Nueva_muestra_de_degradado_1)"/><path d="M90.07,67.14a2.91,2.91,0,0,1-.72,2,2.17,2.17,0,0,1-1.67.84,2.11,2.11,0,0,1-1.73-1L78,57.19,70,68.93a2.06,2.06,0,0,1-1.69,1,2.18,2.18,0,0,1-1.67-.81,2.78,2.78,0,0,1-.73-1.93,3,3,0,0,1,.58-1.77L75,53,66.77,41.14a2.74,2.74,0,0,1-.59-1.77,2.83,2.83,0,0,1,.7-1.94,2,2,0,0,1,3.38.21l7.68,11.21,7.65-11.23a2.05,2.05,0,0,1,1.69-1,2.16,2.16,0,0,1,1.67.82,3,3,0,0,1,.15,3.7L80.9,53l8.54,12.38A3,3,0,0,1,90.07,67.14Z" transform="translate(0 0.08)" fill="url(#Nueva_muestra_de_degradado_1)"/><path d="M94.69,69.09A3.34,3.34,0,0,1,94,66.9l0-27.33a3.28,3.28,0,0,1,.68-2.17,2.29,2.29,0,0,1,1.83-.82,2.32,2.32,0,0,1,1.87.81A3.26,3.26,0,0,1,99,39.56l0,27.33a3.28,3.28,0,0,1-.68,2.19,2.29,2.29,0,0,1-1.87.84A2.24,2.24,0,0,1,94.69,69.09Z" transform="translate(0 0.08)" fill="url(#Nueva_muestra_de_degradado_1)"/><path d="M105.74,69.07a3.29,3.29,0,0,1-.69-2.18l0-27.34a3.21,3.21,0,0,1,.68-2.17,2.28,2.28,0,0,1,1.83-.81,2.34,2.34,0,0,1,1.87.81,3.27,3.27,0,0,1,.69,2.16l0,27.34a3.39,3.39,0,0,1-.68,2.19,2.29,2.29,0,0,1-1.87.84A2.25,2.25,0,0,1,105.74,69.07Z" transform="translate(0 0.08)" fill="url(#Nueva_muestra_de_degradado_1)"/><path d="M107.38,91.51l-13.79-5V85.05a2.92,2.92,0,0,0,1.75-2.74,3,3,0,0,0-3-2.94,3,3,0,0,0-2.93,3A3,3,0,0,0,91.14,85v3h0v.1l13.58,4.92v3.1l2.62,0V92Z" transform="translate(0 0.08)" fill="#084d72"/><rect x="25.09" y="3.46" width="100.02" height="100.02" rx="13.55" transform="translate(-0.07 0.18) rotate(-0.07)" fill="none" stroke-miterlimit="10" stroke-width="7" stroke="url(#Degradado_sin_nombre_4)"/><path d="M140.68,18.79a4.37,4.37,0,0,0-4.17,3.15h-8.06v2.12h8a4.27,4.27,0,0,0,4.21,3.34A4.38,4.38,0,0,0,145,23.07,4.27,4.27,0,0,0,140.68,18.79Z" transform="translate(0 0.08)" fill="#004165"/></svg>